<svg xmlns="http://www.w3.org/2000/svg" viewBox="0 0 900 310" width="900" height="310" role="img" aria-labelledby="t d">
<title id="t">Prismo: webs y automatizaciones con IA para pequeños negocios — prismo.digital</title>
<desc id="d">Tarjeta rosa con el prisma sonriente de Prismo. Texto: Ponemos tu negocio en internet. Tú no tienes que entender nada. Botón verde: prismo.digital.</desc>
<style>

.bob{animation:bob 3s ease-in-out infinite}
@keyframes bob{0%,100%{transform:translateY(0)}50%{transform:translateY(-8px)}}
.blink{transform-box:fill-box;transform-origin:center;animation:blink 4.2s infinite}
@keyframes blink{0%,92%,100%{transform:scaleY(1)}95%{transform:scaleY(.1)}}
.pulse{transform-box:fill-box;transform-origin:center;animation:pulse 1.6s ease-in-out infinite}
@keyframes pulse{0%,100%{transform:scale(1)}50%{transform:scale(1.35)}}
.wave{transform-box:fill-box;transform-origin:10% 90%;animation:wave 1.2s ease-in-out infinite}
@keyframes wave{0%,100%{transform:rotate(-12deg)}50%{transform:rotate(22deg)}}
.twinkle{transform-box:fill-box;transform-origin:center;animation:twinkle 2.4s ease-in-out infinite}
@keyframes twinkle{0%,100%{transform:scale(.4) rotate(0deg);opacity:.5}50%{transform:scale(1) rotate(45deg);opacity:1}}

.cta{transform-box:fill-box;transform-origin:center;animation:cta 2.6s ease-in-out infinite}
@keyframes cta{0%,100%{transform:rotate(0) scale(1)}50%{transform:rotate(2deg) scale(1.04)}}
.ray{transform-box:fill-box;transform-origin:left center;animation:ray 2.4s ease-in-out infinite}
@keyframes ray{0%,100%{transform:scaleY(.8);opacity:.8}50%{transform:scaleY(1.15);opacity:1}}
@media (prefers-reduced-motion: reduce){*{animation:none!important}}
</style>
<defs><clipPath id="wp-clip"><rect x="10" y="10" width="874" height="284" rx="30"/></clipPath></defs>
<rect x="16" y="16" width="874" height="284" rx="30" fill="#1a1612"/>
<rect x="10" y="10" width="874" height="284" rx="30" fill="#ff2a7b"/>
<g clip-path="url(#wp-clip)">
<defs><pattern id="wp-d" width="22" height="22" patternUnits="userSpaceOnUse"><circle cx="3" cy="3" r="2" fill="#fff" fill-opacity="0.1"/></pattern></defs><rect width="900" height="310" fill="url(#wp-d)"/>
<polygon class="ray" style="animation-delay:0s" points="745,150 745,160 920,60 920,90" fill="#ffc2d9" fill-opacity=".9"/><polygon class="ray" style="animation-delay:0.2s" points="745,155 745,165 920,120 920,150" fill="#ff8fb8" fill-opacity=".9"/><polygon class="ray" style="animation-delay:0.4s" points="745,160 745,170 920,180 920,210" fill="#fff" fill-opacity=".9"/><polygon class="ray" style="animation-delay:0.6000000000000001s" points="745,165 745,175 920,240 920,270" fill="#29ff37" fill-opacity=".9"/><polygon class="ray" style="animation-delay:0.8s" points="745,170 745,180 920,300 920,330" fill="#6fd0ff" fill-opacity=".9"/><g transform="translate(700 160) scale(1.35)"><g class="bob">
<path d="M0 -78 L66 46 Q70 58 56 58 L-56 58 Q-70 58 -66 46 Z" fill="#ff2a7b" stroke="#1a1612" stroke-width="7" stroke-linejoin="round"/>
<path d="M-8 -50 L-40 14" stroke="#fff" stroke-opacity=".55" stroke-width="9" stroke-linecap="round"/>
<g class="blink">
<ellipse cx="-17" cy="8" rx="11" ry="14" fill="#fff" stroke="#1a1612" stroke-width="4"/>
<ellipse cx="17" cy="8" rx="11" ry="14" fill="#fff" stroke="#1a1612" stroke-width="4"/>
<circle cx="-14" cy="11" r="5" fill="#1a1612"/><circle cx="20" cy="11" r="5" fill="#1a1612"/>
</g>
<path d="M-14 36 Q0 48 14 36" fill="none" stroke="#1a1612" stroke-width="5" stroke-linecap="round"/>
</g></g><g transform="translate(850 50)"><path class="twinkle" style="animation-delay:0s" d="M0 -15 Q2.6999999999999997 -2.6999999999999997 15 0 Q2.6999999999999997 2.6999999999999997 0 15 Q-2.6999999999999997 2.6999999999999997 -15 0 Q-2.6999999999999997 -2.6999999999999997 0 -15 Z" fill="#ffd23f" stroke="#1a1612" stroke-width="2.5" stroke-linejoin="round"/></g><g transform="translate(600 250)"><path class="twinkle" style="animation-delay:1s" d="M0 -12 Q2.16 -2.16 12 0 Q2.16 2.16 0 12 Q-2.16 2.16 -12 0 Q-2.16 -2.16 0 -12 Z" fill="#29ff37" stroke="#1a1612" stroke-width="2.5" stroke-linejoin="round"/></g>
<path transform="translate(51 110.76)" d="M14.8 -17.2L14.8 -29.2L26.1 -29.2Q31.7 -29.2 34.5 -31.4Q37.3 -33.7 37.3 -38.9Q37.3 -43.9 34.7 -46.3Q32.2 -48.8 27.1 -48.8L14.8 -48.8L14.8 -60.7L27.9 -60.7Q33.1 -60.7 37.6 -59.5Q42.1 -58.2 45.5 -55.6Q48.9 -52.9 50.7 -48.8Q52.6 -44.8 52.6 -39.1Q52.6 -31.8 49.4 -27Q46.1 -22.1 39.9 -19.6Q33.8 -17.2 24.8 -17.2ZM3.7 0L3.7 -60.7L18.6 -60.7L18.6 0ZM57.6 0L57.6 -60.7L82.8 -60.7Q86.9 -60.7 90.5 -60Q94.1 -59.3 97.1 -58Q100.1 -56.6 102.3 -54.5Q104.5 -52.3 105.7 -49.4Q106.9 -46.5 106.9 -42.9Q106.9 -40 105.9 -37.5Q105 -35 102.9 -32.9Q100.8 -30.9 97.6 -29.6Q94.3 -28.2 89.8 -27.7L89.8 -27Q95.7 -26.7 98.9 -24.7Q102.1 -22.6 103.7 -19.5Q105.3 -16.5 106.2 -12.9L109.4 0L92.9 0L90.6 -12Q90.1 -15.2 88.9 -17.1Q87.8 -19 85.7 -20Q83.5 -20.9 80 -20.9L72.5 -20.9L72.5 0ZM72.5 -32.4L81.1 -32.4Q86.2 -32.4 88.9 -34.3Q91.5 -36.2 91.5 -40.2Q91.5 -44.5 89.1 -46.6Q86.6 -48.8 81.5 -48.8L72.5 -48.8ZM114.2 0L114.2 -60.7L129.2 -60.7L129.2 0ZM160.4 1.3Q153.9 1.3 149.1 -0.2Q144.3 -1.7 141 -4.4Q137.8 -7.2 136.3 -11.1Q134.8 -15 135 -19.8L148.8 -22.8Q149 -18.6 150.6 -16Q152.2 -13.3 154.9 -12.1Q157.7 -10.9 161.1 -10.9Q163.9 -10.9 166 -11.5Q168.1 -12.2 169.3 -13.5Q170.6 -14.7 170.6 -16.4Q170.6 -18.6 168.9 -20Q167.3 -21.4 164.4 -22.4Q161.5 -23.5 157.8 -24.5Q153.8 -25.6 149.9 -26.9Q146 -28.2 142.8 -30.3Q139.6 -32.3 137.6 -35.5Q135.6 -38.7 135.6 -43.5Q135.6 -49.4 138.6 -53.5Q141.6 -57.7 146.9 -59.8Q152.2 -62 159 -62Q166.2 -62 171.8 -59.6Q177.4 -57.1 180.4 -52.4Q183.5 -47.7 182.8 -40.9L169.2 -38.7Q169.3 -41.5 168.6 -43.6Q168 -45.7 166.7 -47.2Q165.3 -48.7 163.3 -49.4Q161.3 -50.2 158.5 -50.2Q155.7 -50.2 153.8 -49.5Q151.9 -48.8 150.9 -47.5Q150 -46.2 150 -44.5Q150 -42.6 151.4 -41.3Q152.9 -40 155.7 -39Q158.4 -38.1 162.2 -37.1Q166.2 -36 170.2 -34.6Q174.2 -33.3 177.6 -31.1Q181 -29 183 -25.6Q185.1 -22.2 185.1 -16.9Q185.1 -10.9 181.9 -6.8Q178.8 -2.8 173.2 -0.7Q167.6 1.3 160.4 1.3ZM190.4 0L190.4 -60.7L212.7 -60.7L225.1 -17.6L225.3 -17.6L237.5 -60.7L258.6 -60.7L258.6 0L244.8 0L244.8 -45.7L244.6 -45.7L230.9 0L217.9 0L204.3 -45.7L204.2 -45.7L204.2 0ZM292.5 1.3Q286 1.3 280.9 -0.7Q275.7 -2.8 272.1 -6.7Q268.6 -10.7 266.7 -16.6Q264.8 -22.4 264.8 -30.1Q264.8 -40.9 268.3 -48Q271.9 -55 278.3 -58.5Q284.7 -62 293 -62Q299.5 -62 304.6 -60Q309.7 -58 313.3 -54.1Q316.9 -50.1 318.7 -44.2Q320.6 -38.3 320.6 -30.4Q320.6 -22.5 318.6 -16.6Q316.7 -10.6 312.9 -6.6Q309.2 -2.7 304 -0.7Q298.8 1.3 292.5 1.3ZM293 -10.9Q297.2 -10.9 299.9 -13Q302.6 -15.1 303.9 -19.3Q305.3 -23.5 305.3 -29.8Q305.3 -36.5 303.8 -40.9Q302.4 -45.4 299.6 -47.6Q296.8 -49.9 292.6 -49.9Q288.5 -49.9 285.8 -47.7Q283 -45.5 281.6 -41.2Q280.2 -36.9 280.2 -30.4Q280.2 -25.6 281 -21.9Q281.8 -18.2 283.4 -15.8Q285 -13.3 287.4 -12.1Q289.8 -10.9 293 -10.9Z" fill="#1a1612" stroke="#1a1612" stroke-width="10" stroke-linejoin="round"/><path transform="translate(46 105.76)" d="M14.8 -17.2L14.8 -29.2L26.1 -29.2Q31.7 -29.2 34.5 -31.4Q37.3 -33.7 37.3 -38.9Q37.3 -43.9 34.7 -46.3Q32.2 -48.8 27.1 -48.8L14.8 -48.8L14.8 -60.7L27.9 -60.7Q33.1 -60.7 37.6 -59.5Q42.1 -58.2 45.5 -55.6Q48.9 -52.9 50.7 -48.8Q52.6 -44.8 52.6 -39.1Q52.6 -31.8 49.4 -27Q46.1 -22.1 39.9 -19.6Q33.8 -17.2 24.8 -17.2ZM3.7 0L3.7 -60.7L18.6 -60.7L18.6 0ZM57.6 0L57.6 -60.7L82.8 -60.7Q86.9 -60.7 90.5 -60Q94.1 -59.3 97.1 -58Q100.1 -56.6 102.3 -54.5Q104.5 -52.3 105.7 -49.4Q106.9 -46.5 106.9 -42.9Q106.9 -40 105.9 -37.5Q105 -35 102.9 -32.9Q100.8 -30.9 97.6 -29.6Q94.3 -28.2 89.8 -27.7L89.8 -27Q95.7 -26.7 98.9 -24.7Q102.1 -22.6 103.7 -19.5Q105.3 -16.5 106.2 -12.9L109.4 0L92.9 0L90.6 -12Q90.1 -15.2 88.9 -17.1Q87.8 -19 85.7 -20Q83.5 -20.9 80 -20.9L72.5 -20.9L72.5 0ZM72.5 -32.4L81.1 -32.4Q86.2 -32.4 88.9 -34.3Q91.5 -36.2 91.5 -40.2Q91.5 -44.5 89.1 -46.6Q86.6 -48.8 81.5 -48.8L72.5 -48.8ZM114.2 0L114.2 -60.7L129.2 -60.7L129.2 0ZM160.4 1.3Q153.9 1.3 149.1 -0.2Q144.3 -1.7 141 -4.4Q137.8 -7.2 136.3 -11.1Q134.8 -15 135 -19.8L148.8 -22.8Q149 -18.6 150.6 -16Q152.2 -13.3 154.9 -12.1Q157.7 -10.9 161.1 -10.9Q163.9 -10.9 166 -11.5Q168.1 -12.2 169.3 -13.5Q170.6 -14.7 170.6 -16.4Q170.6 -18.6 168.9 -20Q167.3 -21.4 164.4 -22.4Q161.5 -23.5 157.8 -24.5Q153.8 -25.6 149.9 -26.9Q146 -28.2 142.8 -30.3Q139.6 -32.3 137.6 -35.5Q135.6 -38.7 135.6 -43.5Q135.6 -49.4 138.6 -53.5Q141.6 -57.7 146.9 -59.8Q152.2 -62 159 -62Q166.2 -62 171.8 -59.6Q177.4 -57.1 180.4 -52.4Q183.5 -47.7 182.8 -40.9L169.2 -38.7Q169.3 -41.5 168.6 -43.6Q168 -45.7 166.7 -47.2Q165.3 -48.7 163.3 -49.4Q161.3 -50.2 158.5 -50.2Q155.7 -50.2 153.8 -49.5Q151.9 -48.8 150.9 -47.5Q150 -46.2 150 -44.5Q150 -42.6 151.4 -41.3Q152.9 -40 155.7 -39Q158.4 -38.1 162.2 -37.1Q166.2 -36 170.2 -34.6Q174.2 -33.3 177.6 -31.1Q181 -29 183 -25.6Q185.1 -22.2 185.1 -16.9Q185.1 -10.9 181.9 -6.8Q178.8 -2.8 173.2 -0.7Q167.6 1.3 160.4 1.3ZM190.4 0L190.4 -60.7L212.7 -60.7L225.1 -17.6L225.3 -17.6L237.5 -60.7L258.6 -60.7L258.6 0L244.8 0L244.8 -45.7L244.6 -45.7L230.9 0L217.9 0L204.3 -45.7L204.2 -45.7L204.2 0ZM292.5 1.3Q286 1.3 280.9 -0.7Q275.7 -2.8 272.1 -6.7Q268.6 -10.7 266.7 -16.6Q264.8 -22.4 264.8 -30.1Q264.8 -40.9 268.3 -48Q271.9 -55 278.3 -58.5Q284.7 -62 293 -62Q299.5 -62 304.6 -60Q309.7 -58 313.3 -54.1Q316.9 -50.1 318.7 -44.2Q320.6 -38.3 320.6 -30.4Q320.6 -22.5 318.6 -16.6Q316.7 -10.6 312.9 -6.6Q309.2 -2.7 304 -0.7Q298.8 1.3 292.5 1.3ZM293 -10.9Q297.2 -10.9 299.9 -13Q302.6 -15.1 303.9 -19.3Q305.3 -23.5 305.3 -29.8Q305.3 -36.5 303.8 -40.9Q302.4 -45.4 299.6 -47.6Q296.8 -49.9 292.6 -49.9Q288.5 -49.9 285.8 -47.7Q283 -45.5 281.6 -41.2Q280.2 -36.9 280.2 -30.4Q280.2 -25.6 281 -21.9Q281.8 -18.2 283.4 -15.8Q285 -13.3 287.4 -12.1Q289.8 -10.9 293 -10.9Z" fill="#fff" stroke="#1a1612" stroke-width="10" stroke-linejoin="round" paint-order="stroke fill"/><text x="48" y="151.76" font-family="ui-monospace, SFMono-Regular, Menlo, Consolas, 'Liberation Mono', monospace" font-size="22" font-weight="700" fill="#fff">Ponemos tu negocio en internet.</text><text x="48" y="181.76" font-family="ui-monospace, SFMono-Regular, Menlo, Consolas, 'Liberation Mono', monospace" font-size="22" font-weight="700" fill="#fff">Tú no tienes que entender nada.</text><g transform="translate(44 203.76) rotate(-1.5)"><g class="cta">
<rect x="4" y="4" width="229" height="46" rx="19.166666666666668" fill="#1a1612"/>
<rect width="229" height="46" rx="19.166666666666668" fill="#29ff37" stroke="#1a1612" stroke-width="3"/>
<path transform="translate(18 32)" d="M0.9 3.6L0.9 -8.2L0.9 -12.7L4.3 -12.7L4.3 -8.8L4.4 -8.8Q4.7 -10.2 5.2 -11.1Q5.8 -12.1 6.6 -12.5Q7.4 -13 8.6 -13Q10.1 -13 11.1 -12.2Q12.2 -11.5 12.7 -10Q13.3 -8.5 13.3 -6.4Q13.3 -4.1 12.6 -2.6Q12 -1.1 11 -0.4Q9.9 0.3 8.6 0.3Q7.5 0.3 6.7 -0.1Q5.8 -0.6 5.3 -1.5Q4.8 -2.5 4.5 -3.9L4.3 -3.9Q4.4 -3.2 4.5 -2.5Q4.6 -1.7 4.7 -1Q4.8 -0.2 4.8 0.4L4.8 3.6ZM7.1 -2.9Q7.9 -2.9 8.4 -3.3Q8.9 -3.8 9.1 -4.6Q9.3 -5.4 9.3 -6.2Q9.3 -7.2 9.1 -8Q8.8 -8.8 8.3 -9.2Q7.8 -9.7 7.1 -9.7Q6.7 -9.7 6.2 -9.5Q5.8 -9.3 5.5 -8.9Q5.1 -8.4 4.9 -7.8Q4.7 -7.1 4.7 -6.2L4.7 -6.1Q4.7 -5.4 4.9 -4.8Q5 -4.3 5.2 -3.9Q5.5 -3.5 5.8 -3.3Q6.1 -3.1 6.4 -3Q6.8 -2.9 7.1 -2.9ZM14.7 0L14.7 -6.9L14.7 -12.7L18.1 -12.7L18.1 -7.6L18.2 -7.6Q18.4 -9.6 18.8 -10.8Q19.2 -12 19.9 -12.5Q20.5 -13 21.3 -13Q21.7 -13 22.2 -12.8Q22.7 -12.7 23.1 -12.5L22.9 -8.1Q22.4 -8.4 21.9 -8.6Q21.4 -8.8 20.9 -8.8Q20.2 -8.8 19.6 -8.3Q19.1 -7.9 18.8 -7.1Q18.6 -6.2 18.6 -5L18.6 0ZM24.3 0L24.3 -12.7L28.2 -12.7L28.2 0ZM26.2 -13.6Q25.1 -13.6 24.5 -14Q23.9 -14.5 23.9 -15.4Q23.9 -16.3 24.5 -16.8Q25.1 -17.3 26.2 -17.3Q27.3 -17.3 27.9 -16.8Q28.5 -16.3 28.5 -15.4Q28.5 -14.5 27.9 -14.1Q27.3 -13.6 26.2 -13.6ZM35.5 0.3Q34.2 0.3 33.1 0.1Q32 -0.2 31.2 -0.7Q30.4 -1.3 30 -2.2Q29.5 -3.1 29.6 -4.4L33 -4.7Q33.1 -3.9 33.4 -3.4Q33.7 -2.9 34.2 -2.7Q34.8 -2.4 35.6 -2.4Q36.3 -2.4 36.9 -2.7Q37.4 -2.9 37.4 -3.5Q37.4 -3.8 37.2 -4Q37 -4.2 36.5 -4.4Q36 -4.6 35 -4.8Q33.8 -5.2 32.8 -5.5Q31.8 -5.8 31.1 -6.2Q30.4 -6.6 30.1 -7.3Q29.7 -7.9 29.7 -8.9Q29.7 -10.2 30.4 -11.1Q31.1 -12 32.4 -12.5Q33.6 -13 35.2 -13Q36.7 -13 38 -12.5Q39.2 -12.1 40 -11.1Q40.7 -10 40.5 -8.3L37.2 -8Q37.3 -8.7 37 -9.2Q36.7 -9.7 36.2 -9.9Q35.7 -10.2 35 -10.2Q34.2 -10.2 33.8 -9.9Q33.3 -9.6 33.3 -9.1Q33.3 -8.8 33.6 -8.5Q33.9 -8.3 34.5 -8.1Q35 -7.9 36 -7.7Q36.8 -7.5 37.7 -7.3Q38.6 -7 39.3 -6.6Q40.1 -6.1 40.6 -5.4Q41.1 -4.7 41.1 -3.6Q41.1 -2.4 40.4 -1.5Q39.8 -0.6 38.5 -0.1Q37.3 0.3 35.5 0.3ZM42.3 0L42.3 -7L42.3 -12.7L45.6 -12.7L45.6 -7.5L45.8 -7.5Q46 -9.5 46.5 -10.7Q46.9 -11.9 47.8 -12.5Q48.6 -13 49.8 -13Q51 -13 51.7 -12.4Q52.4 -11.8 52.8 -10.6Q53.2 -9.4 53.1 -7.5L53.3 -7.5Q53.5 -9.5 54 -10.7Q54.6 -11.9 55.4 -12.5Q56.3 -13 57.5 -13Q58.4 -13 59.2 -12.6Q59.9 -12.3 60.4 -11.6Q60.9 -10.8 61.1 -9.8Q61.3 -8.7 61.3 -7.2L61.3 0L57.5 0L57.5 -6.9Q57.5 -7.8 57.3 -8.4Q57.1 -9 56.8 -9.3Q56.5 -9.6 56 -9.6Q55.4 -9.6 54.9 -9Q54.4 -8.5 54 -7.3Q53.7 -6.2 53.7 -4.5L53.7 0L49.9 0L49.9 -7Q49.9 -7.9 49.8 -8.4Q49.6 -9 49.3 -9.3Q49 -9.6 48.5 -9.6Q47.9 -9.6 47.4 -9.1Q46.9 -8.6 46.5 -7.5Q46.2 -6.4 46.2 -4.5L46.2 0ZM68.9 0.3Q67 0.3 65.6 -0.4Q64.2 -1.1 63.4 -2.6Q62.6 -4.1 62.6 -6.3Q62.6 -8.6 63.4 -10.1Q64.3 -11.6 65.7 -12.3Q67.1 -13 68.9 -13Q70.8 -13 72.2 -12.3Q73.6 -11.5 74.4 -10.1Q75.2 -8.6 75.2 -6.3Q75.2 -4 74.3 -2.5Q73.5 -1.1 72.1 -0.4Q70.7 0.3 68.9 0.3ZM69 -2.5Q69.7 -2.5 70.2 -2.9Q70.7 -3.4 71 -4.2Q71.2 -5 71.2 -6.1Q71.2 -7.4 70.9 -8.2Q70.7 -9.1 70.1 -9.5Q69.6 -10 68.8 -10Q68.1 -10 67.6 -9.6Q67.1 -9.1 66.8 -8.3Q66.6 -7.5 66.6 -6.4Q66.6 -4.5 67.2 -3.5Q67.8 -2.5 69 -2.5ZM78.4 0.3Q77.1 0.3 76.5 -0.2Q75.9 -0.7 75.9 -1.8Q75.9 -3 76.5 -3.5Q77.1 -4 78.4 -4Q79.6 -4 80.2 -3.5Q80.9 -3 80.9 -1.8Q80.9 0.3 78.4 0.3ZM86.5 0.3Q85.1 0.3 84 -0.4Q82.9 -1.1 82.3 -2.7Q81.7 -4.2 81.7 -6.5Q81.7 -8.7 82.3 -10.1Q82.8 -11.6 83.9 -12.3Q84.9 -13 86.4 -13Q87.5 -13 88.3 -12.5Q89.2 -12.1 89.7 -11.1Q90.3 -10.1 90.5 -8.5L90.7 -8.5Q90.6 -9.4 90.5 -10.1Q90.3 -10.9 90.3 -11.7Q90.2 -12.4 90.2 -13.1L90.2 -16.8L94.1 -16.8L94.1 -4.5L94.1 0L90.7 0L90.7 -3.9L90.6 -3.9Q90.3 -2.5 89.8 -1.6Q89.2 -0.6 88.4 -0.1Q87.6 0.3 86.5 0.3ZM87.9 -2.8Q88.3 -2.8 88.8 -3Q89.2 -3.2 89.5 -3.6Q89.9 -4 90.1 -4.7Q90.3 -5.3 90.3 -6.2L90.3 -6.4Q90.3 -7.1 90.1 -7.7Q90 -8.2 89.7 -8.6Q89.5 -9 89.2 -9.3Q88.9 -9.5 88.5 -9.6Q88.2 -9.8 87.8 -9.8Q87.1 -9.8 86.6 -9.3Q86.1 -8.8 85.9 -8Q85.6 -7.1 85.6 -6.2Q85.6 -5.3 85.9 -4.5Q86.1 -3.7 86.6 -3.2Q87.1 -2.8 87.9 -2.8ZM95.8 0L95.8 -12.7L99.7 -12.7L99.7 0ZM97.8 -13.6Q96.7 -13.6 96.1 -14Q95.5 -14.5 95.5 -15.4Q95.5 -16.3 96.1 -16.8Q96.7 -17.3 97.8 -17.3Q98.9 -17.3 99.5 -16.8Q100.1 -16.3 100.1 -15.4Q100.1 -14.5 99.5 -14.1Q98.9 -13.6 97.8 -13.6ZM106.5 3.8Q104.3 3.8 103.1 3.5Q101.8 3.1 101.3 2.5Q100.8 1.9 100.8 1.2Q100.8 0.1 101.6 -0.5Q102.5 -1.1 104.1 -1.4L104.1 -1.5Q102.8 -1.5 102.1 -1.9Q101.5 -2.3 101.5 -3.1Q101.5 -3.8 102.1 -4.3Q102.7 -4.9 104.2 -4.9L104.2 -5.1Q102.9 -5.4 102.1 -6.3Q101.3 -7.1 101.3 -8.6Q101.3 -9.8 102 -10.7Q102.6 -11.6 103.8 -12.2Q105.1 -12.7 106.8 -12.7L113.1 -12.7L113.1 -9.7L108.8 -10.2L108.8 -10.1Q110.8 -9.8 111.5 -9.2Q112.2 -8.5 112.2 -7.6Q112.2 -6.7 111.6 -6Q111.1 -5.3 110 -5Q108.8 -4.6 107.1 -4.6Q106.6 -4.6 106 -4.6Q105.5 -4.7 105.1 -4.7Q104.7 -4.6 104.5 -4.4Q104.3 -4.2 104.3 -4Q104.3 -3.9 104.4 -3.8Q104.5 -3.8 104.6 -3.8Q104.8 -3.7 105.1 -3.7L108.9 -3.7Q109.4 -3.7 110.2 -3.7Q110.9 -3.6 111.7 -3.3Q112.4 -3 112.9 -2.3Q113.4 -1.6 113.4 -0.4Q113.4 1.1 112.7 2Q111.9 2.9 110.4 3.4Q108.8 3.8 106.5 3.8ZM106.5 0.4Q108.1 0.4 108.8 0.3Q109.6 0.2 109.9 0Q110.1 -0.2 110.1 -0.5Q110.1 -0.8 109.9 -1Q109.7 -1.2 109.4 -1.3Q109.1 -1.3 108.9 -1.4Q108.6 -1.4 108.4 -1.4L105.2 -1.4Q104.4 -1.1 104.1 -0.9Q103.9 -0.6 103.9 -0.4Q103.9 0 104.2 0.1Q104.5 0.3 105.1 0.3Q105.7 0.4 106.5 0.4ZM106.9 -6.7Q107.6 -6.7 108.1 -7.1Q108.5 -7.6 108.5 -8.5Q108.5 -9.3 108.1 -9.8Q107.6 -10.3 106.9 -10.3Q106.1 -10.3 105.7 -9.8Q105.2 -9.3 105.2 -8.5Q105.2 -7.9 105.4 -7.5Q105.6 -7.1 106 -6.9Q106.3 -6.7 106.9 -6.7ZM114.6 0L114.6 -12.7L118.5 -12.7L118.5 0ZM116.5 -13.6Q115.4 -13.6 114.9 -14Q114.3 -14.5 114.3 -15.4Q114.3 -16.3 114.9 -16.8Q115.4 -17.3 116.5 -17.3Q117.7 -17.3 118.3 -16.8Q118.9 -16.3 118.9 -15.4Q118.9 -14.5 118.3 -14.1Q117.7 -13.6 116.5 -13.6ZM125.3 0.3Q123.1 0.3 122 -0.8Q120.9 -2 120.9 -4.4L120.9 -9.6L119.5 -9.6L119.5 -12.1L119.6 -12.1Q121.1 -12.3 121.7 -13.1Q122.3 -13.9 122.5 -15.5L122.5 -15.6L124.7 -15.6L124.7 -12.7L127.6 -12.7L127.6 -9.5L124.7 -9.5L124.7 -4.7Q124.7 -3.8 125.2 -3.5Q125.6 -3.1 126.3 -3.1Q126.6 -3.1 127 -3.2Q127.3 -3.3 127.6 -3.4L127.6 0Q126.9 0.2 126.3 0.2Q125.7 0.3 125.3 0.3ZM132.3 0.3Q131.4 0.3 130.5 0Q129.7 -0.3 129.1 -1.1Q128.5 -1.8 128.5 -3.1Q128.5 -4.3 129 -5Q129.5 -5.8 130.2 -6.2Q131 -6.6 131.9 -6.9Q132.8 -7.1 133.7 -7.3Q135 -7.5 135.6 -7.7Q136.2 -7.8 136.4 -8Q136.7 -8.2 136.7 -8.5Q136.7 -9.2 136.1 -9.6Q135.6 -9.9 134.8 -9.9Q134.3 -9.9 133.7 -9.7Q133.2 -9.5 132.9 -9.1Q132.5 -8.6 132.6 -7.7L129.1 -7.9Q129.1 -9.4 129.6 -10.4Q130.1 -11.4 130.9 -12Q131.8 -12.5 132.9 -12.8Q133.9 -13 134.9 -13Q136.8 -13 138.1 -12.3Q139.3 -11.6 139.9 -10.3Q140.5 -8.9 140.5 -7L140.5 -4.8Q140.5 -4 140.5 -3.2Q140.5 -2.4 140.5 -1.6Q140.5 -0.8 140.5 0L137.1 0Q137.1 -0.9 137.1 -1.7Q137.1 -2.6 137.1 -3.6L136.9 -3.6Q136.9 -2.5 136.2 -1.6Q135.6 -0.7 134.6 -0.2Q133.6 0.3 132.3 0.3ZM133.9 -2.5Q134.4 -2.5 134.8 -2.6Q135.3 -2.8 135.7 -3.2Q136.1 -3.5 136.4 -4.2Q136.7 -4.8 136.7 -5.7L136.7 -6.3L137.3 -6.4Q137.1 -6.1 136.7 -5.9Q136.2 -5.7 135.7 -5.6Q135.1 -5.5 134.6 -5.4Q134 -5.3 133.5 -5.1Q133 -4.9 132.7 -4.6Q132.4 -4.3 132.4 -3.8Q132.4 -3.1 132.9 -2.8Q133.3 -2.5 133.9 -2.5ZM142 0L142 -16.8L145.9 -16.8L145.9 0Z" fill="#1a1612"/><path transform="translate(178.784 23)" d="M0 0 H20 M12 -9 L21 0 L12 9" fill="none" stroke="#1a1612" stroke-width="4.5" stroke-linecap="round" stroke-linejoin="round"/></g></g>
</g>
<rect x="10" y="10" width="874" height="284" rx="30" fill="none" stroke="#1a1612" stroke-width="3"/>
</svg>
